<svg xmlns="http://www.w3.org/2000/svg" viewBox="0 0 128 128">
  <path fill="#3178c6" d="M2 63.91v62.5h125v-125H2zm100 73.73a7.6 7.6 0 01-2.47 3.93 12 12 0 01-7.51 2.11 19 19 0 01-6.84-1.67 23.1 23.1 0 01-6.14-5.11A42.48 42.48 0 0174 118.29l15.24-4.25a16.1 16.1 0 004.82 5.38 9.53 9.53 0 005.61 1.34 7.54 7.54 0 006.26-3.12 8.24 8.24 0 001.55-5.25 7.66 7.66 0 00-.8-3.72 12.16 12.16 0 00-2.2-3 27.48 27.48 0 00-3.13-2.67 41.85 41.85 0 00-4.07-2.89c-1.26-.73-2.08-1.39-2.45-1.97a3.44 3.44 0 01-.61-2.15 3.29 3.29 0 011.06-2.48 4.55 4.55 0 013.06-1.06 6.13 6.13 0 013.98 1.3 17.22 17.22 0 013.94 3.89l13.78-15.26a22.77 22.77 0 00-15.5-6.31 26.48 26.48 0 00-14 3.23 23.85 23.85 0 00-9.33 10.11 28.54 28.54 0 00-3.17 15.59 25.32 25.32 0 003.65 13.77 23.23 23.23 0 0010.1 9.26 33.64 33.64 0 0015.85 3.46 31.32 31.32 0 0019.63-6.3 25.77 25.77 0 009.46-19.18 22.84 22.84 0 00-1.67-9.06zM73.6 75.25H88.3v46.23H73.6z"/>
</svg>
