<svg xmlns="http://www.w3.org/2000/svg" viewBox="0 0 32 32">
  <path fill="#f05032" d="M2 12.714A10.733 10.733 0 0 1 12.5 2a10.733 10.733 0 0 1 8.01 3.562l3.535-3.535a13.233 13.233 0 0 0-9.01-3.648A13.266 13.266 0 0 0 0 13.267a13.266 13.266 0 0 0 8.986 12.575c-.6.138-.66-.245-.66-.58 0-.28.01-1.17.01-2.277 0-.968-.325-1.598-.325-1.598-.325-.448-.89-.575-.89-.575-.725-.5.055-.49.055-.49.8.055 1.225.825 1.225.825.715 1.225 1.875.87 2.33.665.07-.52.275-.87.5-1.07-1.78-.2-3.64-.89-3.64-3.955 0-.875.31-1.59.825-2.15-.08-.2-.36-1.02.08-2.12 0 0 .67-.215 2.2.82a7.527 7.527 0 0 1 2.01-.27c.68.005 1.36.095 2.01.27 1.53-1.035 2.2-.82 2.2-.82.44 1.1.16 1.92.08 2.12.515.56.825 1.275.825 2.15 0 3.075-1.87 3.745-3.65 3.945.28.24.53.73.53 1.48 0 1.07-.01 1.93-.01 2.19 0 .34.06.72.66.58A13.266 13.266 0 0 0 32 13.267 13.266 13.266 0 0 0 18.714 0a13.233 13.233 0 0 0-9.01 3.648l3.535 3.535A10.733 10.733 0 0 1 2 12.714z"/>
</svg>
