<svg xmlns="http://www.w3.org/2000/svg" viewBox="0 0 448 512">
  <path fill="#339933" d="M224 508c-6.7 0-13.5-1.8-19.4-5.2l-61.7-36.5c-6.1-3.6-9.8-10.2-9.8-17.3V300.8l-49.6 29.4c-6.1 3.6-13.7 3.6-19.8 0L53.4 289.8c-6.1-3.6-9.8-10.2-9.8-17.3V100.3c0-7.1 3.7-13.7 9.8-17.3l61.7-36.5c6.1-3.6 13.7-3.6 19.8 0l61.7 36.5c6.1 3.6 9.8 10.2 9.8 17.3v172.2l49.6-29.4c6.1-3.6 13.7-3.6 19.8 0l61.7 36.5c6.1 3.6 9.8 10.2 9.8 17.3v172.2c0 7.1-3.7 13.7-9.8 17.3L243.4 502.8c-5.9 3.4-12.7 5.2-19.4 5.2z"/>
  <path fill="#ffffff" d="M224 452c-2.1 0-4.2-.6-6.1-1.7l-55.3-32.7c-1.9-1.1-3.1-3.2-3.1-5.4V150.8c0-2.2 1.2-4.3 3.1-5.4l55.3-32.7c1.9-1.1 4.2-1.7 6.1-1.7s4.2.6 6.1 1.7l55.3 32.7c1.9 1.1 3.1 3.2 3.1 5.4v261.4c0 2.2-1.2 4.3-3.1 5.4l-55.3 32.7c-1.9 1.1-4.2 1.7-6.1 1.7z"/>
</svg>
